<?xml version="1.0" encoding="utf-8"?>
<!-- Generator: Adobe Illustrator 15.1.0, SVG Export Plug-In . SVG Version: 6.00 Build 0)  -->
<!DOCTYPE svg PUBLIC "-//W3C//DTD SVG 1.1//EN" "http://www.w3.org/Graphics/SVG/1.1/DTD/svg11.dtd">
<svg version="1.1" id="Layer_1" xmlns="http://www.w3.org/2000/svg" xmlns:xlink="http://www.w3.org/1999/xlink" x="0px" y="0px"
	 width="272px" height="37px" viewBox="0 0 272 37" enable-background="new 0 0 272 37" xml:space="preserve">
<g>
	<path fill="#32515B" d="M7.9,7.235H1.941c-0.787,0-1.124-0.562-1.124-1.874V4.199c0-1.312,0.337-1.874,1.124-1.874h17.726
		c0.787,0,1.125,0.562,1.125,1.874v1.162c0,1.312-0.337,1.874-1.125,1.874h-5.958v20.2c0,0.787-0.675,1.199-2.249,1.199h-1.312
		c-1.574,0-2.249-0.412-2.249-1.199V7.235z"/>
	<path fill="#32515B" d="M22.816,1.501c0-0.787,0.675-1.199,2.249-1.199h1.049c1.574,0,2.249,0.413,2.249,1.199v9.707
		c1.162-1.387,3.035-2.548,5.284-2.548c3.748,0,5.659,1.911,5.659,6.071v12.705c0,0.787-0.674,1.199-2.248,1.199h-1.05
		c-1.574,0-2.248-0.412-2.248-1.199v-11.88c0-1.462-0.75-2.324-2.398-2.324c-1.537,0-2.549,1.312-2.998,2.174v12.03
		c0,0.787-0.675,1.199-2.249,1.199h-1.049c-1.574,0-2.249-0.412-2.249-1.199V1.501z"/>
	<path fill="#32515B" d="M50.699,8.659c5.958,0,9.069,3.56,9.069,10.081c0,6.521-3.11,10.118-9.069,10.118
		c-5.959,0-9.106-3.598-9.106-10.118C41.593,12.219,44.74,8.659,50.699,8.659z M54.147,18.74c0-3.748-1.049-5.696-3.448-5.696
		s-3.485,1.948-3.485,5.696c0,3.747,1.087,5.733,3.485,5.733S54.147,22.487,54.147,18.74z"/>
	<path fill="#32515B" d="M62.805,10.083c0-0.787,0.675-1.199,2.249-1.199h1.049c1.574,0,2.249,0.412,2.249,1.199v11.88
		c0,1.462,0.6,2.323,2.249,2.323c1.537,0,2.548-1.312,2.998-2.173v-12.03c0-0.787,0.675-1.199,2.249-1.199h1.049
		c1.574,0,2.249,0.412,2.249,1.199v11.88c0,3.86,0.45,4.646,0.45,5.434c0,0.899-3.26,1.199-4.197,1.199
		c-1.199,0-1.274-1.573-1.499-2.586c-1.087,1.425-3.148,2.849-5.584,2.849c-3.747,0-5.509-1.911-5.509-6.071V10.083z"/>
	<path fill="#32515B" d="M83.867,23.425c0.487,0,1.911,1.049,3.672,1.049c1.574,0,2.286-0.562,2.286-1.687
		c0-3.298-7.495-1.349-7.495-8.057c0-3.748,2.661-6.071,6.896-6.071c1.237,0,5.546,0.262,5.546,2.361
		c0,0.487-0.862,2.773-1.611,2.773c-0.375,0-1.499-0.787-3.186-0.787c-1.274,0-2.023,0.412-2.023,1.349
		c0,2.735,7.495,1.312,7.495,7.982c0,3.935-2.811,6.521-7.008,6.521c-3.26,0-6.558-0.862-6.558-2.661
		C81.88,25.448,83.08,23.425,83.867,23.425z"/>
	<path fill="#32515B" d="M108.527,16.417V15.18c0-1.424-0.862-2.136-2.923-2.136c-2.735,0-4.347,1.199-4.797,1.199
		c-0.787,0-1.949-2.211-1.949-2.998c0-1.274,2.998-2.586,7.158-2.586c5.921,0,8.058,2.623,8.058,6.258v7.045
		c0,3.86,0.45,4.646,0.45,5.434c0,0.899-3.26,1.199-4.197,1.199c-1.199,0-1.274-1.573-1.499-2.586
		c-0.262,0.487-2.061,2.849-5.509,2.849c-4.047,0-5.546-2.398-5.546-5.472C97.771,20.314,99.008,16.417,108.527,16.417z
		 M105.154,24.474c1.424,0,2.773-1.012,3.373-2.36v-2.062c-3.56,0-5.247,0.975-5.247,2.773
		C103.28,23.762,103.917,24.474,105.154,24.474z"/>
	<path fill="#32515B" d="M118.196,15.555c0-3.748-0.449-4.535-0.449-5.284c0-0.899,3.26-1.199,4.197-1.199
		c1.199,0,1.274,1.499,1.499,2.436c1.086-1.424,3.147-2.848,5.583-2.848c3.748,0,5.509,1.911,5.509,6.071v12.705
		c0,0.787-0.675,1.199-2.249,1.199h-1.049c-1.574,0-2.249-0.412-2.249-1.199v-11.88c0-1.462-0.6-2.324-2.248-2.324
		c-1.537,0-2.549,1.312-2.998,2.174v12.03c0,0.787-0.675,1.199-2.249,1.199h-1.049c-1.574,0-2.249-0.412-2.249-1.199V15.555z"/>
	<path fill="#32515B" d="M136.823,18.74c0-6.109,2.848-10.081,7.907-10.081c1.762,0,3.035,0.6,3.822,1.162v-8.32
		c0-0.787,0.675-1.199,2.249-1.199h1.049c1.574,0,2.249,0.413,2.249,1.199v20.462c0,3.86,0.449,4.646,0.449,5.434
		c0,0.899-3.26,1.199-4.197,1.199c-1.199,0-1.274-1.573-1.499-2.548c-0.862,1.611-2.698,2.811-5.021,2.811
		C139.783,28.858,136.823,25.261,136.823,18.74z M148.553,22.113v-8.357c-0.6-0.337-1.461-0.712-2.623-0.712
		c-2.361,0-3.485,1.948-3.485,5.696c0,3.635,0.975,5.584,3.035,5.584C146.904,24.324,147.878,23.274,148.553,22.113z"/>
	<path fill="#FB7C32" d="M158.26,3.825c0-1.049,0.449-1.499,1.499-1.499h13.716c0.787,0,1.124,0.562,1.124,1.874v1.162
		c0,1.312-0.337,1.874-1.124,1.874h-9.443v5.434h8.432c0.787,0,1.124,0.562,1.124,1.874v1.162c0,1.311-0.337,1.874-1.124,1.874
		h-8.432v6.071h9.48c0.787,0,1.125,0.562,1.125,1.874v1.161c0,1.312-0.338,1.874-1.125,1.874h-13.753
		c-1.05,0-1.499-0.449-1.499-1.499V3.825z"/>
	<path fill="#FB7C32" d="M175.911,10.383c-0.075-0.262-0.149-0.487-0.149-0.674c0-0.525,0.712-0.825,2.286-0.825h1.199
		c1.087,0,1.911,0.188,2.099,0.787l2.211,6.933c0.262,0.862,0.712,2.923,1.049,4.535h0.15c0.337-1.611,0.787-3.71,1.049-4.535
		l2.211-6.933c0.188-0.6,1.012-0.787,2.099-0.787h0.899c1.574,0,2.249,0.3,2.249,0.825c0,0.187-0.038,0.412-0.112,0.674
		l-8.582,25.108c-0.225,0.6-1.012,0.787-2.099,0.787h-0.638c-1.536,0-2.248-0.3-2.248-0.787c0-0.187,0.037-0.412,0.15-0.674
		l2.36-6.259L175.911,10.383z"/>
	<path fill="#FB7C32" d="M202.595,8.659c5.884,0,8.095,4.459,8.095,9.669c0,0.637-1.424,2.211-1.911,2.211h-9.557
		c0.263,2.998,1.874,3.935,4.31,3.935c2.361,0,4.01-1.161,4.535-1.161c0.824,0,1.948,2.098,1.948,2.848
		c0,1.874-4.646,2.698-6.745,2.698c-6.783,0-9.781-3.935-9.781-9.969C193.488,11.507,197.235,8.659,202.595,8.659z M205.293,16.829
		c0-2.173-0.824-3.785-2.698-3.785c-1.574,0-2.923,0.899-3.373,3.785H205.293z"/>
	<path fill="#FB7C32" d="M213.764,23.425c0.486,0,1.911,1.049,3.672,1.049c1.574,0,2.286-0.562,2.286-1.687
		c0-3.298-7.495-1.349-7.495-8.057c0-3.748,2.661-6.071,6.896-6.071c1.237,0,5.547,0.262,5.547,2.361
		c0,0.487-0.862,2.773-1.612,2.773c-0.374,0-1.498-0.787-3.185-0.787c-1.274,0-2.024,0.412-2.024,1.349
		c0,2.735,7.495,1.312,7.495,7.982c0,3.935-2.811,6.521-7.008,6.521c-3.26,0-6.558-0.862-6.558-2.661
		C211.777,25.448,212.977,23.425,213.764,23.425z"/>
</g>
<path fill="#FB7C32" d="M252.489,28.321c-11.149,0-18.604-11.578-18.916-12.071l-0.707-1.116l0.719-1.109
	c0.312-0.481,7.771-11.798,18.904-11.798c6.568,0,12.86,3.929,18.698,11.678l0.924,1.228l-0.91,1.238
	C265.363,24.301,259.067,28.321,252.489,28.321z M237.857,15.162c1.997,2.639,7.563,9.032,14.632,9.032
	c4.869,0,9.725-3.037,14.445-9.031c-4.717-5.847-9.572-8.808-14.445-8.808C245.427,6.355,239.866,12.573,237.857,15.162z"/>
<path fill="#FB7C32" d="M243.997,28.312c-10.872-0.335-17.882-11.664-18.188-12.149l-0.581-1.128l0.677-1.096
	c0.307-0.473,7.195-11.314,18.005-11.701c-8.396,3.852-14.232,13.007-14.232,13.007S234.572,23.46,243.997,28.312z"/>
<path fill="#FB7C32" d="M250.858,21.966c2.684-1.489,5.894-3.473,8.517-6.803c-2.598-3.221-6.201-5.109-8.862-6.567
	c6.43-1.414,12.033,4.936,12.033,4.936l1.505,1.654l-1.484,1.675C256.694,23.185,250.858,21.966,250.858,21.966z"/>
<circle fill="#32515B" cx="248.346" cy="15.276" r="3.009"/>
</svg>
